<?xml version="1.0" encoding="UTF-8"?>
<svg version="1.1" xmlns="http://www.w3.org/2000/svg" width="430" height="430">
<path d="M0 0 C185.16666667 0 185.16666667 0 195 3 C196.1446875 3.32484375 196.1446875 3.32484375 197.3125 3.65625 C206.54812026 6.31149082 215.2616142 10.03184413 224 14 C224 14.66 224 15.32 224 16 C224.71929687 16.10441406 225.43859375 16.20882812 226.1796875 16.31640625 C229.28934125 17.07013119 231.41894344 18.24518023 234.125 19.9375 C234.97320312 20.46214844 235.82140625 20.98679687 236.6953125 21.52734375 C238.47621096 22.66530768 240.2415249 23.82768327 242 25 C242 25.66 242 26.32 242 27 C242.61875 27.309375 243.2375 27.61875 243.875 27.9375 C245.25 28.625 246.625 29.3125 248 30 C248 30.66 248 31.32 248 32 C248.598125 32.103125 249.19625 32.20625 249.8125 32.3125 C252.31258286 33.09824033 253.37535082 33.96918853 255 36 C255 36.66 255 37.32 255 38 C255.66 38 256.32 38 257 38 C261.61208975 42.33693667 265.37825733 47.68957412 269.25 52.6875 C269.67410156 53.23365967 270.09820312 53.77981934 270.53515625 54.3425293 C277 62.78402468 277 62.78402468 277 68 C277.66 68 278.32 68 279 68 C282.47959034 74.10088173 285.62996828 80.1484998 288.125 86.71875 C288.91140954 88.76903202 289.77657065 90.75296258 290.6875 92.75 C292.7980304 97.97607527 293.127097 102.95162953 293.16113281 108.54931641 C293.17074036 109.83150055 293.1803479 111.11368469 293.19024658 112.4347229 C293.19509704 113.8236676 293.19937526 115.21261439 293.203125 116.6015625 C293.20595238 117.30923138 293.20877975 118.01690025 293.21169281 118.74601364 C293.22664239 122.49457923 293.23589729 126.24310679 293.24023438 129.99169922 C293.24569836 133.83105689 293.26969428 137.67005624 293.29820633 141.50930214 C293.31699073 144.48990843 293.32204672 147.47043133 293.32357025 150.45109177 C293.3265642 151.86464766 293.33447996 153.27820326 293.34775543 154.69169998 C293.45222262 166.67443564 291.47416279 176.92112071 287 188 C286.34 188 285.68 188 285 188 C284.67 190.64 284.34 193.28 284 196 C283.34 196 282.68 196 282 196 C281.87625 196.763125 281.7525 197.52625 281.625 198.3125 C281 201 281 201 279 204 C278.34 204 277.68 204 277 204 C276.938125 204.845625 276.87625 205.69125 276.8125 206.5625 C275.81850182 210.76787691 273.97837736 213.86388926 271 217 C270.34 217 269.68 217 269 217 C268.896875 217.5775 268.79375 218.155 268.6875 218.75 C267.89103535 221.35661158 266.80934723 222.9735311 265 225 C264.34 225 263.68 225 263 225 C263 225.66 263 226.32 263 227 C262.34 227 261.68 227 261 227 C260.79375 227.556875 260.5875 228.11375 260.375 228.6875 C258.82465702 231.29489502 256.9201718 232.85768779 254.55859375 234.7265625 C252.8174997 236.09981435 252.8174997 236.09981435 250.75 238.3125 C236.74418605 252 236.74418605 252 231 252 C231 252.66 231 253.32 231 254 C209.6918989 264.99407344 187.88669962 272.62457838 163.79296875 273.7890625 C160.91731524 273.89207026 160.91731524 273.89207026 158 275 C155.32478668 275.13291733 152.67652148 275.21224374 150 275.23828125 C149.20907959 275.246353 148.41815918 275.25442474 147.60327148 275.26274109 C145.92547792 275.27657212 144.24765634 275.28729867 142.56982422 275.29516602 C140.87084587 275.30662597 139.17190179 275.32698172 137.47314453 275.35668945 C126.57698984 275.54712215 117.92469485 274.96234743 108 270 C108 269.34 108 268.68 108 268 C107.41734375 267.91492188 106.8346875 267.82984375 106.234375 267.7421875 C103.36459046 266.78893739 102.20689464 265.40804374 100.25 263.125 C99.63640625 262.42632812 99.0228125 261.72765625 98.390625 261.0078125 C97 259 97 259 97 256 C96.34 256 95.68 256 95 256 C93.14457894 251.25340075 92.58068375 246.86701351 92.5625 241.8125 C92.55863281 241.06943604 92.55476563 240.32637207 92.55078125 239.56079102 C92.68886372 232.91485289 94.55214256 227.70127856 98 222 C98.66 222 99.32 222 100 222 C100.33 221.01 100.66 220.02 101 219 C101.66 219 102.32 219 103 219 C103 218.34 103 217.68 103 217 C111.98489155 208.30494367 123.09192492 207.87629558 134.8671875 207.7890625 C136.99089318 207.76099846 139.114591 207.73233402 141.23828125 207.703125 C144.55810358 207.66190326 147.87777826 207.62497795 151.19775391 207.59863281 C154.4211993 207.57088985 157.6439957 207.5250299 160.8671875 207.4765625 C161.84871796 207.47330963 162.83024841 207.47005676 163.84152222 207.46670532 C170.08674919 207.35637273 175.20420935 206.30632909 181 204 C182.01707031 203.63519531 183.03414062 203.27039063 184.08203125 202.89453125 C190.77912899 200.24060267 196.51410572 196.91145525 202.40625 192.76953125 C205 191 205 191 207.21875 190.01171875 C209.52458454 188.70204518 209.92964688 187.389419 211 185 C211.98465059 183.7620043 213.00661024 182.55282297 214.0625 181.375 C215.66378483 179.5818742 216.92328158 178.15343684 218 176 C218.66 176 219.32 176 220 176 C220.0825 175.319375 220.165 174.63875 220.25 173.9375 C221 171 221 171 222.875 167.875 C228.34943645 158.73766788 229.1997684 147.36564133 229.1875 136.9375 C229.18669434 136.21014648 229.18588867 135.48279297 229.18505859 134.73339844 C229.09680229 126.74879854 228.91904776 117.79061558 225.9296875 110.328125 C225 108 225 108 225 104 C224.34 104 223.68 104 223 104 C221.99491199 102.21118264 220.99607264 100.41885304 220 98.625 C219.443125 97.62726563 218.88625 96.62953125 218.3125 95.6015625 C217 93 217 93 217 91 C216.34 91 215.68 91 215 91 C213.484375 89.42578125 213.484375 89.42578125 211.75 87.3125 C209.49924272 84.64650867 207.29950455 82.28989909 204.5625 80.125 C203.716875 79.42375 202.87125 78.7225 202 78 C202 77.34 202 76.68 202 76 C201.17242187 75.83177734 201.17242187 75.83177734 200.328125 75.66015625 C197.59934789 74.88639227 195.27227057 73.73182306 192.75 72.4375 C191.85796875 71.98246094 190.9659375 71.52742188 190.046875 71.05859375 C189.03367187 70.53458984 189.03367187 70.53458984 188 70 C188 69.34 188 68.68 188 68 C187.12988281 67.92652344 187.12988281 67.92652344 186.2421875 67.8515625 C181.51675893 67.39929376 177.50580649 66.53197421 173 65 C136.91135605 58.43842837 99.67842939 62.37048919 63 62 C63 172.22 63 282.44 63 396 C42.21 396 21.42 396 0 396 C0 265.32 0 134.64 0 0 Z " fill="#3FC6DF" transform="translate(99,21)"/>
<path d="M0 0 C0.33 0 0.66 0 1 0 C1.00423194 0.97954462 1.00846388 1.95908924 1.01282406 2.96831703 C1.11639518 26.89340647 1.22518888 50.81846793 1.33933926 74.74350929 C1.39442463 86.31385993 1.44786362 97.88421364 1.49731445 109.45458984 C1.54046127 119.54896393 1.5868116 129.64331759 1.63687855 139.73765981 C1.66323658 145.07374291 1.68807899 150.4098226 1.70907402 155.74592972 C1.72896002 160.78722778 1.75318807 165.82848781 1.78049088 170.86975098 C1.7896954 172.70204335 1.79742657 174.53434394 1.80341911 176.36664963 C1.83630053 186.13578234 2.02029533 195.88371189 2.45033264 205.64413452 C2.48878341 206.53129831 2.52723418 207.4184621 2.56685013 208.33250964 C2.81347152 213.48990194 3.2216357 218.60518779 3.7881735 223.73748535 C4.14270822 227.52426362 4.13930942 231.30178583 4.12939453 235.10229492 C4.13114685 235.95082535 4.13289917 236.79935577 4.13470459 237.67359924 C4.13906005 240.44257734 4.13620836 243.21149015 4.1328125 245.98046875 C4.13348716 247.92238884 4.13445854 249.86430884 4.13571167 251.80622864 C4.13717994 255.86000377 4.13506149 259.91375675 4.13037109 263.9675293 C4.12466287 269.15232948 4.12796526 274.33707802 4.13394356 279.52187634 C4.13756296 283.52566413 4.13640443 287.52943975 4.13381577 291.53322792 C4.13315091 293.44491901 4.13395943 295.35661123 4.13629532 297.26830101 C4.13884578 299.94085993 4.13494809 302.6133359 4.12939453 305.28588867 C4.13141876 306.06787628 4.13344299 306.84986389 4.13552856 307.6555481 C4.11811373 312.19861217 3.68006166 316.49814042 3 321 C2.9160569 322.88941585 2.87222572 324.78108433 2.87060547 326.67236328 C2.86745331 327.73681671 2.86430115 328.80127014 2.86105347 329.89797974 C2.8630777 331.02734955 2.86510193 332.15671936 2.8671875 333.3203125 C2.86623077 334.49713593 2.86527405 335.67395935 2.86428833 336.88644409 C2.8636098 339.36586562 2.86544124 341.84528895 2.86962891 344.32470703 C2.87499132 348.1188556 2.86966787 351.9128863 2.86328125 355.70703125 C2.8639419 358.11979193 2.8652228 360.53255253 2.8671875 362.9453125 C2.86516327 364.07873077 2.86313904 365.21214905 2.86105347 366.37991333 C2.86578171 367.96713699 2.86578171 367.96713699 2.87060547 369.58642578 C2.87140106 370.51351349 2.87219666 371.4406012 2.87301636 372.39578247 C3.00122317 375.02508503 3.45953153 377.42808018 4 380 C4.06652855 382.26995419 4.08543751 384.54168695 4.0625 386.8125 C4.05347656 387.97394531 4.04445313 389.13539063 4.03515625 390.33203125 C4.02355469 391.21246094 4.01195313 392.09289062 4 393 C4.88945313 392.83628906 5.77890625 392.67257812 6.6953125 392.50390625 C9.5046866 392.07552651 12.04465888 391.89461604 14.875 391.9375 C15.65617187 391.94652344 16.43734375 391.95554687 17.2421875 391.96484375 C18.11230469 391.98224609 18.11230469 391.98224609 19 392 C19 391.34 19 390.68 19 390 C20.91583647 389.8041991 22.83272539 389.61867786 24.75 389.4375 C25.81734375 389.33308594 26.8846875 389.22867187 27.984375 389.12109375 C30.64141204 389.01439926 32.49960572 389.18069605 35 390 C35 390.99 35 391.98 35 393 C37.64 393 40.28 393 43 393 C43 392.34 43 391.68 43 391 C47.39615613 390.29661502 51.5560329 390 56 390 C57.94685985 388.05314015 57.25491293 384.34974087 57.31420898 381.6887207 C57.33486734 380.89696379 57.3555257 380.10520687 57.37681007 379.28945732 C57.44433007 376.56417973 57.50230384 373.83881315 57.55859375 371.11328125 C57.57965117 370.1478924 57.60070858 369.18250355 57.6224041 368.18786049 C58.26849681 337.67203435 58.11439263 307.14463048 58.07202756 276.62377656 C58.0606015 268.24330011 58.05528989 259.86282258 58.05032361 251.48234022 C58.04002564 234.32155112 58.02257694 217.16077727 58 200 C58.33 200 58.66 200 59 200 C59.33 153.8 59.66 107.6 60 60 C84.069375 59.938125 84.069375 59.938125 108.625 59.875 C113.66604004 59.85679199 118.70708008 59.83858398 123.90087891 59.81982422 C130.12182617 59.81079102 130.12182617 59.81079102 133.04672241 59.80911255 C135.06194953 59.80606887 137.07717333 59.79909276 139.09237671 59.78884888 C153.74940201 59.71815606 168.03917776 59.7754314 182.0625 64.625 C183.19655273 65.0130481 183.19655273 65.0130481 184.35351562 65.40893555 C202.0213662 71.76135811 215.11263565 83.86368824 224.1171875 100.1171875 C225 102 225 102 225 104 C224.34 104 223.68 104 223 104 C221.99491199 102.21118264 220.99607264 100.41885304 220 98.625 C219.443125 97.62726563 218.88625 96.62953125 218.3125 95.6015625 C217 93 217 93 217 91 C216.34 91 215.68 91 215 91 C213.484375 89.42578125 213.484375 89.42578125 211.75 87.3125 C209.49924272 84.64650867 207.29950455 82.28989909 204.5625 80.125 C203.716875 79.42375 202.87125 78.7225 202 78 C202 77.34 202 76.68 202 76 C201.17242187 75.83177734 201.17242187 75.83177734 200.328125 75.66015625 C197.59934789 74.88639227 195.27227057 73.73182306 192.75 72.4375 C191.85796875 71.98246094 190.9659375 71.52742188 190.046875 71.05859375 C189.03367187 70.53458984 189.03367187 70.53458984 188 70 C188 69.34 188 68.68 188 68 C187.12988281 67.92652344 187.12988281 67.92652344 186.2421875 67.8515625 C181.51675893 67.39929376 177.50580649 66.53197421 173 65 C136.91135605 58.43842837 99.67842939 62.37048919 63 62 C63 172.22 63 282.44 63 396 C42.21 396 21.42 396 0 396 C0 265.32 0 134.64 0 0 Z " fill="#30879A" transform="translate(99,21)"/>
<path d="M0 0 C126.97211538 0 126.97211538 0 150.96875 21.96875 C155.83768468 26.83768468 164 35.79246813 164 43 C163.34 43 162.68 43 162 43 C160.99491199 41.21118264 159.99607264 39.41885304 159 37.625 C158.443125 36.62726563 157.88625 35.62953125 157.3125 34.6015625 C156 32 156 32 156 30 C155.34 30 154.68 30 154 30 C152.484375 28.42578125 152.484375 28.42578125 150.75 26.3125 C148.49924272 23.64650867 146.29950455 21.28989909 143.5625 19.125 C142.716875 18.42375 141.87125 17.7225 141 17 C141 16.34 141 15.68 141 15 C140.44828125 14.88785156 139.8965625 14.77570313 139.328125 14.66015625 C136.59934789 13.88639227 134.27227057 12.73182306 131.75 11.4375 C130.85796875 10.98246094 129.9659375 10.52742188 129.046875 10.05859375 C128.03367187 9.53458984 128.03367187 9.53458984 127 9 C127 8.34 127 7.68 127 7 C126.41992188 6.95101562 125.83984375 6.90203125 125.2421875 6.8515625 C120.51675893 6.39929376 116.50580649 5.53197421 112 4 C75.91135605 -2.56157163 38.67842939 1.37048919 2 1 C2 111.22 2 221.44 2 335 C-18.79 335 -39.58 335 -61 335 C-61 334.67 -61 334.34 -61 334 C-40.87 334 -20.74 334 0 334 C0 223.78 0 113.56 0 0 Z " fill="#002334" transform="translate(160,82)"/>
<path d="M0 0 C0.33 0 0.66 0 1 0 C1.49286989 12.34000166 -0.39445153 22.59578474 -5 34 C-5.66 34 -6.32 34 -7 34 C-7.33 36.64 -7.66 39.28 -8 42 C-8.66 42 -9.32 42 -10 42 C-10.185625 43.1446875 -10.185625 43.1446875 -10.375 44.3125 C-11 47 -11 47 -13 50 C-13.66 50 -14.32 50 -15 50 C-15.061875 50.845625 -15.12375 51.69125 -15.1875 52.5625 C-16.18149818 56.76787691 -18.02162264 59.86388926 -21 63 C-21.66 63 -22.32 63 -23 63 C-23.1546875 63.86625 -23.1546875 63.86625 -23.3125 64.75 C-24.10896465 67.35661158 -25.19065277 68.9735311 -27 71 C-27.66 71 -28.32 71 -29 71 C-29 71.66 -29 72.32 -29 73 C-29.66 73 -30.32 73 -31 73 C-31.20625 73.556875 -31.4125 74.11375 -31.625 74.6875 C-33.17534298 77.29489502 -35.0798282 78.85768779 -37.44140625 80.7265625 C-39.1825003 82.09981435 -39.1825003 82.09981435 -41.25 84.3125 C-55.25581395 98 -55.25581395 98 -61 98 C-61 98.66 -61 99.32 -61 100 C-82.3081011 110.99407344 -104.11330038 118.62457838 -128.20703125 119.7890625 C-131.08268476 119.89207026 -131.08268476 119.89207026 -134 121 C-136.67521332 121.13291733 -139.32347852 121.21224374 -142 121.23828125 C-142.79092041 121.246353 -143.58184082 121.25442474 -144.39672852 121.26274109 C-146.07452208 121.27657212 -147.75234366 121.28729867 -149.43017578 121.29516602 C-151.12915413 121.30662597 -152.82809821 121.32698172 -154.52685547 121.35668945 C-165.42301016 121.54712215 -174.07530515 120.96234743 -184 116 C-184 115.34 -184 114.68 -184 114 C-184.58136719 113.91492188 -185.16273438 113.82984375 -185.76171875 113.7421875 C-188.63813458 112.78840215 -189.83426307 111.3989313 -191.8125 109.125 C-192.75029297 108.07699219 -192.75029297 108.07699219 -193.70703125 107.0078125 C-194.13371094 106.34523438 -194.56039062 105.68265625 -195 105 C-194.67 104.01 -194.34 103.02 -194 102 C-193.67128906 102.51949219 -193.34257812 103.03898437 -193.00390625 103.57421875 C-187.91421409 111.03634194 -181.62439278 114.57158536 -173 117 C-170.16194351 117.17465773 -167.42816651 117.25739759 -164.59375 117.23046875 C-163.39111511 117.22978142 -163.39111511 117.22978142 -162.16418457 117.2290802 C-160.46979286 117.22606904 -158.77540365 117.21821687 -157.08105469 117.20581055 C-154.53570303 117.18775328 -151.99072107 117.18529994 -149.4453125 117.18554688 C-135.89667817 117.15807443 -122.60894647 116.70898221 -109.3125 113.875 C-107.77674316 113.5500354 -107.77674316 113.5500354 -106.20996094 113.21850586 C-69.20564654 104.99053505 -38.3060305 83.47764018 -17.75 51.6875 C-8.31038694 35.80651163 -3.2948123 18.04658556 0 0 Z " fill="#02222C" transform="translate(391,175)"/>
<path d="M0 0 C1.35864313 0.04269327 2.71712303 0.09076095 4.07543945 0.14282227 C5.60701093 0.19177718 7.13858666 0.24059896 8.67016602 0.28930664 C9.89491638 0.33099976 9.89491638 0.33099976 11.14440918 0.37353516 C25.6845509 0.86325254 40.20337038 1.09019204 54.7512207 1.02172852 C68.78062501 0.95990445 82.74778348 1.2194486 96.76342773 1.92993164 C98.84116979 2.01516304 100.92173124 2.02172852 103.0012207 2.02172852 C103.9912207 2.35172852 104.9812207 2.68172852 106.0012207 3.02172852 C106.0012207 4.01172852 106.0012207 5.00172852 106.0012207 6.02172852 C106.69989258 6.13387695 107.39856445 6.24602539 108.1184082 6.36157227 C112.40450132 7.34307598 116.24568787 9.19666232 120.2590332 10.96313477 C122.97776653 12.20179675 122.97776653 12.20179675 126.0012207 12.02172852 C126.3312207 13.34172852 126.6612207 14.66172852 127.0012207 16.02172852 C128.3212207 16.35172852 129.6412207 16.68172852 131.0012207 17.02172852 C131.0012207 17.68172852 131.0012207 18.34172852 131.0012207 19.02172852 C131.6612207 19.02172852 132.3212207 19.02172852 133.0012207 19.02172852 C133.2487207 19.99110352 133.4962207 20.96047852 133.7512207 21.95922852 C134.3699707 23.47516602 134.3699707 23.47516602 135.0012207 25.02172852 C137.03365618 25.99049909 137.03365618 25.99049909 139.0012207 26.02172852 C139.3312207 27.67172852 139.6612207 29.32172852 140.0012207 31.02172852 C140.6612207 31.02172852 141.3212207 31.02172852 142.0012207 31.02172852 C142.9912207 33.00172852 143.9812207 34.98172852 145.0012207 37.02172852 C144.0112207 37.51672852 144.0112207 37.51672852 143.0012207 38.02172852 C142.4855957 37.19672852 141.9699707 36.37172852 141.4387207 35.52172852 C130.19132755 18.88495948 112.5222004 9.40471417 93.10116577 5.42788696 C81.75492448 3.62116781 70.44156229 3.66930829 58.9777832 3.60766602 C57.02619686 3.59069216 55.07461771 3.57287132 53.12304688 3.55419922 C45.9575203 3.49148926 38.79185871 3.44505678 31.6262207 3.39672852 C7.5568457 3.21110352 7.5568457 3.21110352 -16.9987793 3.02172852 C-16.9987793 49.88172852 -16.9987793 96.74172852 -16.9987793 145.02172852 C-17.3287793 145.02172852 -17.6587793 145.02172852 -17.9987793 145.02172852 C-18.00686615 144.39549088 -18.014953 143.76925323 -18.02328491 143.1240387 C-18.11032145 136.51968376 -18.20984862 129.91559554 -18.31616211 123.31152344 C-18.35410237 120.85714245 -18.38901136 118.40271244 -18.4206543 115.94824219 C-18.60017727 102.18948904 -18.94052883 88.6422191 -20.9987793 75.02172852 C-21.3287793 75.02172852 -21.6587793 75.02172852 -21.9987793 75.02172852 C-22.02567146 73.5426596 -22.04512551 72.06345369 -22.0612793 70.58422852 C-22.07288086 69.76051758 -22.08448242 68.93680664 -22.09643555 68.08813477 C-21.9987793 66.02172852 -21.9987793 66.02172852 -20.9987793 65.02172852 C-20.85154827 62.91932257 -20.77108786 60.81219654 -20.7175293 58.70532227 C-20.68071045 57.39096191 -20.6438916 56.07660156 -20.60595703 54.72241211 C-20.58846405 54.02557312 -20.57097107 53.32873413 -20.552948 52.61077881 C-20.46305889 49.04043396 -20.35858247 45.47053604 -20.25268555 41.90063477 C-20.23222672 41.20466187 -20.21176788 40.50868896 -20.19068909 39.79162598 C-20.00203286 33.6267991 -19.62459771 27.49323994 -19.1784668 21.34204102 C-18.93190144 16.785942 -19.0142971 12.25260749 -19.15893555 7.69360352 C-18.99345666 4.93293138 -18.42087795 3.36400865 -16.9987793 1.02172852 C-16.07194336 1.03333008 -15.14510742 1.04493164 -14.19018555 1.05688477 C-12.39387695 1.07041992 -12.39387695 1.07041992 -10.5612793 1.08422852 C-8.76883789 1.10163086 -8.76883789 1.10163086 -6.94018555 1.11938477 C-3.480187 1.00451098 -3.48451677 0.02524807 0 0 Z " fill="#69CCDA" transform="translate(175.998779296875,77.978271484375)"/>
<path d="M0 0 C-0.0625 1.75 -0.0625 1.75 -1 4 C-2.58984375 4.98046875 -2.58984375 4.98046875 -4.5 5.9375 C-6.41368898 6.86631105 -6.41368898 6.86631105 -8 8 C-8.64767793 10.57061311 -8.64767793 10.57061311 -9 13 C-11.3125 14.0625 -11.3125 14.0625 -14 15 C-17.03895107 17.53245923 -18.34481542 19.13886372 -19 23 C-19.1198184 25.70009367 -19.18507018 28.36297312 -19.1875 31.0625 C-19.19974609 31.78244141 -19.21199219 32.50238281 -19.22460938 33.24414062 C-19.23519011 37.0426247 -19.15755655 38.76366518 -17 42 C-15 45.66666667 -15 45.66666667 -15 48 C-13.515 47.505 -13.515 47.505 -12 47 C-11.34 48.32 -10.68 49.64 -10 51 C-9.34 51 -8.68 51 -8 51 C-8 51.99 -8 52.98 -8 54 C3.81385431 57.06285112 15.45863494 58.31909854 27.625 57.5625 C34.26515724 57.19527918 40.85065269 56.94909771 47.5 57.0625 C53.75187333 57.1202096 59.65971297 56.50180232 65.81640625 55.4375 C69.24624839 54.96615973 72.54221164 54.93023378 76 55 C76 55.33 76 55.66 76 56 C72.79447468 56.66028499 69.58518954 57.30031265 66.375 57.9375 C65.49070312 58.11990234 64.60640625 58.30230469 63.6953125 58.49023438 C50.67483254 61.04782865 37.48463917 61.23167517 24.2578125 61.29516602 C22.57869091 61.30677209 20.89960861 61.32735722 19.22070312 61.35668945 C5.81316878 61.58942303 -4.69779664 60.51704699 -15 51 C-18 47.40816327 -18 47.40816327 -18 45 C-18.99 45 -19.98 45 -21 45 C-22.85542106 40.25340075 -23.41931625 35.86701351 -23.4375 30.8125 C-23.44330078 29.69790405 -23.44330078 29.69790405 -23.44921875 28.56079102 C-23.31113628 21.91485289 -21.44785744 16.70127856 -18 11 C-17.34 11 -16.68 11 -16 11 C-15.67 10.01 -15.34 9.02 -15 8 C-14.34 8 -13.68 8 -13 8 C-13 7.34 -13 6.68 -13 6 C-8.69398122 2.17242775 -5.80737713 0 0 0 Z " fill="#41A4BC" transform="translate(215,232)"/>
<path d="M0 0 C13.69194792 -0.09303738 27.38381955 -0.1639356 41.07602024 -0.20724869 C47.43515318 -0.22804592 53.79406846 -0.25621911 60.15307617 -0.30175781 C66.29986116 -0.34549689 72.44643791 -0.36919612 78.59336662 -0.37950897 C80.92830618 -0.38685021 83.26323547 -0.40118468 85.5980854 -0.42292023 C98.36616152 -0.53695947 109.88874485 -0.35483661 122 4 C123.11222427 4.39886414 124.22444855 4.79772827 125.37037659 5.2086792 C142.33108576 11.57196889 156.32270104 24.62629159 164 41 C164 41.66 164 42.32 164 43 C163.34 43 162.68 43 162 43 C160.99491199 41.21118264 159.99607264 39.41885304 159 37.625 C158.443125 36.62726563 157.88625 35.62953125 157.3125 34.6015625 C156 32 156 32 156 30 C155.34 30 154.68 30 154 30 C152.484375 28.42578125 152.484375 28.42578125 150.75 26.3125 C148.49924272 23.64650867 146.29950455 21.28989909 143.5625 19.125 C142.716875 18.42375 141.87125 17.7225 141 17 C141 16.34 141 15.68 141 15 C140.44828125 14.88785156 139.8965625 14.77570313 139.328125 14.66015625 C136.59934789 13.88639227 134.27227057 12.73182306 131.75 11.4375 C130.85796875 10.98246094 129.9659375 10.52742188 129.046875 10.05859375 C128.37140625 9.70925781 127.6959375 9.35992187 127 9 C127 8.34 127 7.68 127 7 C126.41992188 6.95101562 125.83984375 6.90203125 125.2421875 6.8515625 C120.51675893 6.39929376 116.50580649 5.53197421 112 4 C104.86250016 2.38876069 97.96616339 1.69895411 90.66333008 1.68115234 C89.6961203 1.67110672 88.72891052 1.6610611 87.73239136 1.65071106 C84.57810997 1.62015145 81.42391235 1.60292046 78.26953125 1.5859375 C76.0656412 1.5672039 73.86175816 1.54762889 71.65788269 1.5272522 C65.88931428 1.47615655 60.12072268 1.43641064 54.35205078 1.39910889 C47.41345227 1.35184812 40.47496683 1.29034786 33.53646088 1.23126221 C23.02435346 1.14332544 12.51226468 1.07336383 2 1 C2 26.08 2 51.16 2 77 C1.67 77 1.34 77 1 77 C0.22562784 72.21034171 -0.12229529 67.62929469 -0.11352539 62.77954102 C-0.11367142 62.09576889 -0.11381744 61.41199677 -0.1139679 60.70750427 C-0.11327755 58.47293803 -0.10552677 56.23845772 -0.09765625 54.00390625 C-0.09578895 52.44449407 -0.09436652 50.88508131 -0.09336853 49.32566833 C-0.08956796 45.24043124 -0.07975891 41.15523025 -0.06866455 37.07000732 C-0.05839731 32.89368172 -0.05385957 28.71735024 -0.04882812 24.54101562 C-0.03813423 16.3606606 -0.02108765 8.1803348 0 0 Z " fill="#00181B" transform="translate(160,82)"/>
<path d="M0 0 C37.62 0 75.24 0 114 0 C113.67 0.66 113.34 1.32 113 2 C103.88091963 2.02322964 94.76184954 2.04096907 85.64274597 2.05181217 C81.40781606 2.05701783 77.17290649 2.06407316 72.93798828 2.07543945 C68.84663698 2.08635098 64.75530517 2.09229428 60.66394043 2.09487724 C59.10754083 2.09671665 57.55114222 2.10030842 55.99475098 2.10573006 C53.80507144 2.11305037 51.61547117 2.11398635 49.42578125 2.11352539 C48.18223877 2.115746 46.93869629 2.11796661 45.6574707 2.12025452 C41.70290262 1.99023169 37.91671918 1.54599263 34 1 C34 1.66 34 2.32 34 3 C33.09644775 2.99476318 32.19289551 2.98952637 31.26196289 2.98413086 C27.92048511 2.96712314 24.57905308 2.95456667 21.23754883 2.94506836 C19.78929927 2.94002899 18.34105483 2.93319747 16.89282227 2.92456055 C14.81525412 2.91247753 12.73775303 2.90676789 10.66015625 2.90234375 C9.40855713 2.89710693 8.15695801 2.89187012 6.86743164 2.88647461 C4.10267706 2.67112965 4.10267706 2.67112965 3 4 C2.92487858 5.62600311 2.91683563 7.25520618 2.9375 8.8828125 C2.94523437 9.88570312 2.95296875 10.88859375 2.9609375 11.921875 C2.98669339 14.03385767 3.01272864 16.14583696 3.0390625 18.2578125 C3.08026828 23.6420341 2.77888484 28.66463882 2 34 C2.10568125 36.42010062 2.27420875 38.83813892 2.5 41.25 C2.94097205 46.60869767 2.87799544 51.64207195 2.26171875 56.98046875 C1.92305132 60.88778108 1.88135993 64.76724057 1.875 68.6875 C1.87056885 69.38858887 1.8661377 70.08967773 1.86157227 70.81201172 C1.87458972 75.62167968 2.35545497 80.23442693 3 85 C3.03471469 86.66630509 3.05205792 88.33414654 3 90 C2.01 90 1.02 90 0 90 C0 60.3 0 30.6 0 0 Z " fill="#6AD1E1" transform="translate(100,21)"/>
<path d="M0 0 C3.24271506 0.5590888 4.93057424 1.4132178 7 4 C7 4.66 7 5.32 7 6 C7.66 6 8.32 6 9 6 C13.61208975 10.33693667 17.37825733 15.68957412 21.25 20.6875 C21.67410156 21.23365967 22.09820312 21.77981934 22.53515625 22.3425293 C29 30.78402468 29 30.78402468 29 36 C29.66 36 30.32 36 31 36 C34.47959034 42.10088173 37.62996828 48.1484998 40.125 54.71875 C40.91140954 56.76903202 41.77657065 58.75296258 42.6875 60.75 C45.16821073 66.89271228 45.13008472 72.85567438 45.0625 79.375 C45.05798828 80.20644531 45.05347656 81.03789062 45.04882812 81.89453125 C45.03713164 83.92971897 45.01919935 85.96486923 45 88 C44.67 88 44.34 88 44 88 C43.92523438 87.24460937 43.85046875 86.48921875 43.7734375 85.7109375 C42.82467791 77.76740131 41.15474578 70.21427546 39.0625 62.5 C38.80968262 61.55688965 38.55686523 60.6137793 38.29638672 59.64208984 C36.94540184 54.78669005 35.45911592 50.40438673 33 46 C32.34 46.99 31.68 47.98 31 49 C30.01 49 29.02 49 28 49 C28.04125 47.824375 28.0825 46.64875 28.125 45.4375 C28.13983635 41.27590326 27.31170778 37.93512333 26 34 C25.01 34 24.02 34 23 34 C21 31 21 31 20.125 27.5625 C18.91857387 23.74215059 17.79305755 22.70841944 15 20 C14.319375 18.329375 14.319375 18.329375 13.625 16.625 C11.68060729 12.28750858 9.40713745 10.25570912 6 7 C6 6.34 6 5.68 6 5 C5.38125 4.731875 4.7625 4.46375 4.125 4.1875 C2 3 2 3 0 0 Z " fill="#26636D" transform="translate(347,53)"/>
<path d="M0 0 C0.33 0 0.66 0 1 0 C1.02505615 0.61407715 1.0501123 1.2281543 1.07592773 1.86083984 C1.19345264 4.69902634 1.31545526 7.5370044 1.4375 10.375 C1.47681641 11.34050781 1.51613281 12.30601562 1.55664062 13.30078125 C1.59853516 14.26113281 1.64042969 15.22148437 1.68359375 16.2109375 C1.72025146 17.08024902 1.75690918 17.94956055 1.79467773 18.84521484 C1.90419241 20.52791234 2.02672212 22.21155696 2.23803711 23.88452148 C3.38514346 33.22422045 3.14431358 42.62250449 3.1328125 52.015625 C3.13348711 53.95994072 3.13445845 55.90425635 3.13571167 57.84857178 C3.13717983 61.90654307 3.13506161 65.96449223 3.13037109 70.02246094 C3.12465906 75.21632766 3.12796772 80.41014286 3.13394356 85.60400772 C3.13756002 89.61204414 3.13640585 93.62006837 3.13381577 97.62810516 C3.13315029 99.54341386 3.13396162 101.45872368 3.13629532 103.37403107 C3.13884133 106.04918853 3.13495445 108.72426278 3.12939453 111.39941406 C3.13141876 112.18499695 3.13344299 112.97057983 3.13552856 113.77996826 C3.11948012 117.95875382 2.81890748 121.90063621 2 126 C1.34 125.67 0.68 125.34 0 125 C0 83.75 0 42.5 0 0 Z " fill="#3FB0CB" transform="translate(100,215)"/>
<path d="M0 0 C0.33 0 0.66 0 1 0 C1.49286989 12.34000166 -0.39445153 22.59578474 -5 34 C-5.66 34 -6.32 34 -7 34 C-7.33 36.64 -7.66 39.28 -8 42 C-8.66 42 -9.32 42 -10 42 C-10.185625 43.1446875 -10.185625 43.1446875 -10.375 44.3125 C-11 47 -11 47 -13 50 C-13.66 50 -14.32 50 -15 50 C-15.0928125 51.2684375 -15.0928125 51.2684375 -15.1875 52.5625 C-16.18149818 56.76787691 -18.02162264 59.86388926 -21 63 C-21.66 63 -22.32 63 -23 63 C-23.103125 63.5775 -23.20625 64.155 -23.3125 64.75 C-24.10896465 67.35661158 -25.19065277 68.9735311 -27 71 C-27.66 71 -28.32 71 -29 71 C-29 71.66 -29 72.32 -29 73 C-29.66 73 -30.32 73 -31 73 C-31.20625 73.556875 -31.4125 74.11375 -31.625 74.6875 C-33.16669435 77.28034959 -35.05315432 78.83674003 -37.40234375 80.6953125 C-39.7775734 82.63498659 -41.86445862 84.80164858 -44 87 C-44.99 86.34 -45.98 85.68 -47 85 C-46.39414062 84.47792969 -45.78828125 83.95585937 -45.1640625 83.41796875 C-19.65426091 61.0085892 -5.662363 33.22913026 0 0 Z " fill="#062D3B" transform="translate(391,175)"/>
<path d="M0 0 C2 1 2 1 3 3 C-0.75 6 -0.75 6 -3 6 C-3 6.66 -3 7.32 -3 8 C-6 10 -6 10 -9.5625 10.4375 C-10.696875 10.623125 -11.83125 10.80875 -13 11 C-13.66 11.99 -14.32 12.98 -15 14 C-17.3828125 14.51171875 -17.3828125 14.51171875 -20.125 14.6875 C-21.49011719 14.78611328 -21.49011719 14.78611328 -22.8828125 14.88671875 C-23.93082031 14.94279297 -23.93082031 14.94279297 -25 15 C-25 15.66 -25 16.32 -25 17 C-38.36485046 17.99526676 -51.66515753 18.12064914 -65.0625 18.0625 C-67.1048166 18.05746926 -69.14713441 18.05290917 -71.18945312 18.04882812 C-76.12633287 18.03796031 -81.06315246 18.02078471 -86 18 C-85.67 17.34 -85.34 16.68 -85 16 C-79.09617252 14.7472488 -73.14673302 14.83361461 -67.1328125 14.7890625 C-65.00910682 14.76099846 -62.885409 14.73233402 -60.76171875 14.703125 C-57.44189642 14.66190326 -54.12222174 14.62497795 -50.80224609 14.59863281 C-47.5788007 14.57088985 -44.3560043 14.5250299 -41.1328125 14.4765625 C-40.15128204 14.47330963 -39.16975159 14.47005676 -38.15847778 14.46670532 C-31.91530426 14.35640901 -26.79201882 13.31331661 -21 11 C-19.948125 10.61199219 -18.89625 10.22398437 -17.8125 9.82421875 C-11.32228024 7.20108826 -5.64327457 4.14695177 0 0 Z " fill="#2B6876" transform="translate(301,214)"/>
<path d="M0 0 C0.33 0 0.66 0 1 0 C3.92509011 21.41070056 3.65579834 44.36003744 -3 65 C-3.23525391 65.73831055 -3.47050781 66.47662109 -3.71289062 67.23730469 C-9.86615889 85.99375464 -19.49686546 102.60261814 -33 117 C-33.66 116.01 -34.32 115.02 -35 114 C-34.01 114 -33.02 114 -32 114 C-32 112.68 -32 111.36 -32 110 C-31.34 110 -30.68 110 -30 110 C-30 109.34 -30 108.68 -30 108 C-28.02 107.505 -28.02 107.505 -26 107 C-26.33 105.68 -26.66 104.36 -27 103 C-26.01 103 -25.02 103 -24 103 C-24 102.34 -24 101.68 -24 101 C-23.34 101 -22.68 101 -22 101 C-21.690625 100.21625 -21.38125 99.4325 -21.0625 98.625 C-20 96 -20 96 -19 94 C-18.34 94 -17.68 94 -17 94 C-16.896875 92.906875 -16.79375 91.81375 -16.6875 90.6875 C-15.95064145 86.7352587 -15.59450029 86.59450029 -13 84 C-12.26958147 80.38976901 -12.26958147 80.38976901 -12 77 C-11.34 77 -10.68 77 -10 77 C-9.34 74.36 -8.68 71.72 -8 69 C-7.34 69 -6.68 69 -6 69 C-5.87882812 67.95199219 -5.75765625 66.90398437 -5.6328125 65.82421875 C-5.46396055 64.44526114 -5.29466659 63.06635761 -5.125 61.6875 C-5.04636719 60.99720703 -4.96773438 60.30691406 -4.88671875 59.59570312 C-4.44056153 56.04360529 -4.02019807 54.0302971 -2 51 C-0.99320862 45.16702116 -0.87803755 39.480449 -0.9375 33.57421875 C-0.94128662 32.70481155 -0.94507324 31.83540436 -0.94897461 30.93965149 C-0.96109492 28.18888149 -0.97973686 25.4382213 -1 22.6875 C-1.02657184 19.04557593 -1.04654992 15.40370303 -1.0625 11.76171875 C-1.07079834 10.92734787 -1.07909668 10.09297699 -1.08764648 9.23332214 C-1.1018805 5.89468549 -1.06354348 3.19063045 0 0 Z " fill="#5CC1D5" transform="translate(390,132)"/>
<path d="M0 0 C2.62451617 2.62451617 2.5832868 4.4877828 3.125 8.125 C3.29257812 9.22070312 3.46015625 10.31640625 3.6328125 11.4453125 C3.75398438 12.28835937 3.87515625 13.13140625 4 14 C4.66 12.68 5.32 11.36 6 10 C6.06058594 10.67546875 6.12117188 11.3509375 6.18359375 12.046875 C6.30927734 13.38492188 6.30927734 13.38492188 6.4375 14.75 C6.51871094 15.63171875 6.59992188 16.5134375 6.68359375 17.421875 C6.91961544 19.93273447 6.91961544 19.93273447 7.59765625 22.015625 C8.61885102 27.05219724 5.97121578 32.84529618 4.5625 37.6875 C4.34529297 38.45900391 4.12808594 39.23050781 3.90429688 40.02539062 C2.23506773 45.76493227 2.23506773 45.76493227 0 48 C-0.67553611 49.86372518 -0.67553611 49.86372518 -1.125 51.9375 C-1.29257812 52.62714844 -1.46015625 53.31679687 -1.6328125 54.02734375 C-2.09149772 56.15713369 -2.09149772 56.15713369 -2 59 C-2.31088368 60.67099977 -2.64080332 62.33871537 -3 64 C-6.96 64.99 -6.96 64.99 -11 66 C-10.67 64.68 -10.34 63.36 -10 62 C-9.34 62 -8.68 62 -8 62 C-7.9175 61.319375 -7.835 60.63875 -7.75 59.9375 C-7 57 -7 57 -5.125 53.875 C0.38005384 44.68656469 1.19374833 33.36280383 1.125 22.875 C1.12306641 22.14869385 1.12113281 21.4223877 1.11914062 20.67407227 C1.06486195 13.75580311 0.61162687 6.89172416 0 0 Z " fill="#39899A" transform="translate(327,135)"/>
<path d="M0 0 C-18.31922679 11.70521315 -18.31922679 11.70521315 -26 15 C-26.62084473 15.27440918 -27.24168945 15.54881836 -27.88134766 15.83154297 C-43.90239236 22.7857531 -60.57529709 25.30538139 -78 25 C-76 23 -76 23 -73.1875 22.9375 C-72.135625 22.958125 -71.08375 22.97875 -70 23 C-68.32962604 22.68577123 -66.66316243 22.35039921 -65 22 C-63.70642578 21.80470703 -63.70642578 21.80470703 -62.38671875 21.60546875 C-56.20241474 20.64784136 -51.39754422 19.19854472 -46 16 C-45.67 15.34 -45.34 14.68 -45 14 C-42 15 -42 15 -40 16 C-38.0020888 15.52503287 -38.0020888 15.52503287 -35.8125 14.6875 C-32.97961486 13.68418651 -30.21911034 12.78823331 -27.3125 12 C-21.29934073 10.18470664 -15.91789936 7.09396015 -10.828125 3.44140625 C-10.03921875 2.88324219 -9.2503125 2.32507813 -8.4375 1.75 C-7.69371094 1.20859375 -6.94992187 0.6671875 -6.18359375 0.109375 C-3.54497684 -1.23117456 -2.73521162 -0.83564961 0 0 Z " fill="#37B8D4" transform="translate(339,265)"/>
<path d="M0 0 C0.33 0 0.66 0 1 0 C1.17536112 9.83319128 1.34137296 19.66652598 1.5 29.5 C1.51187725 30.23596153 1.5237545 30.97192307 1.53599167 31.73018646 C2.01811908 61.82228229 2.12041489 91.90392197 2 122 C1.67 122 1.34 122 1 122 C0.99191315 121.37376236 0.98382629 120.74752472 0.97549438 120.10231018 C0.88845785 113.49795524 0.78893068 106.89386703 0.68261719 100.28979492 C0.64467693 97.83541394 0.60976794 95.38098392 0.578125 92.92651367 C0.39860202 79.16776052 0.05825046 65.62049058 -2 52 C-2.33 52 -2.66 52 -3 52 C-3.02689216 50.52093108 -3.04634621 49.04172517 -3.0625 47.5625 C-3.07990234 46.32693359 -3.07990234 46.32693359 -3.09765625 45.06640625 C-3 43 -3 43 -2 42 C-1.85297117 39.8389035 -1.77236525 37.67324109 -1.71875 35.5078125 C-1.70034058 34.84723846 -1.68193115 34.18666443 -1.66296387 33.506073 C-1.60406914 31.37914185 -1.55147041 29.25212288 -1.5 27.125 C-1.27484573 18.05149318 -0.9877283 9.03100122 0 0 Z " fill="#57C4D6" transform="translate(157,101)"/>
<path d="M0 0 C-0.0625 1.75 -0.0625 1.75 -1 4 C-2.58984375 4.98046875 -2.58984375 4.98046875 -4.5 5.9375 C-6.41368898 6.86631105 -6.41368898 6.86631105 -8 8 C-8.64767793 10.57061311 -8.64767793 10.57061311 -9 13 C-11.3125 14.0625 -11.3125 14.0625 -14 15 C-17.0274679 17.52288992 -18.30543663 19.16173598 -19 23 C-19.07952806 24.73285648 -19.10774143 26.46847386 -19.09765625 28.203125 C-19.09443359 29.1828125 -19.09121094 30.1625 -19.08789062 31.171875 C-19.07951172 32.18765625 -19.07113281 33.2034375 -19.0625 34.25 C-19.05798828 35.28125 -19.05347656 36.3125 -19.04882812 37.375 C-19.03706088 39.91672573 -19.02062011 42.45833319 -19 45 C-19.66 45 -20.32 45 -21 45 C-22.85542106 40.25340075 -23.41931625 35.86701351 -23.4375 30.8125 C-23.44330078 29.69790405 -23.44330078 29.69790405 -23.44921875 28.56079102 C-23.31113628 21.91485289 -21.44785744 16.70127856 -18 11 C-17.34 11 -16.68 11 -16 11 C-15.67 10.01 -15.34 9.02 -15 8 C-14.34 8 -13.68 8 -13 8 C-13 7.34 -13 6.68 -13 6 C-8.69398122 2.17242775 -5.80737713 0 0 0 Z " fill="#36BDD8" transform="translate(215,232)"/>
<path d="M0 0 C2 2 2 2 2.23377991 4.25691223 C2.22632248 5.19669418 2.21886505 6.13647614 2.21118164 7.10473633 C2.20780289 8.16956741 2.20442413 9.2343985 2.20094299 10.33149719 C2.18748337 11.48667343 2.17402374 12.64184967 2.16015625 13.83203125 C2.15495468 15.01592941 2.14975311 16.19982758 2.14439392 17.41960144 C2.12652783 21.2173569 2.09536454 25.01484694 2.0625 28.8125 C2.03487581 32.59941618 2.01014647 36.38629315 1.99131775 40.17326355 C1.97907399 42.53276526 1.96148346 44.89224656 1.93800354 47.25166321 C1.93147263 48.32595078 1.92494171 49.40023834 1.91821289 50.50708008 C1.90995987 51.44924881 1.90170685 52.39141754 1.89320374 53.36213684 C2.00049348 56.01218902 2.45138182 58.41023414 3 61 C3.06652855 63.26995419 3.08543751 65.54168695 3.0625 67.8125 C3.05347656 68.97394531 3.04445313 70.13539063 3.03515625 71.33203125 C3.02355469 72.21246094 3.01195313 73.09289062 3 74 C4.36511719 73.73896484 4.36511719 73.73896484 5.7578125 73.47265625 C9.40228241 72.94135401 12.39192207 73.35054597 16 74 C16 74.33 16 74.66 16 75 C10.72 75 5.44 75 0 75 C0 50.25 0 25.5 0 0 Z " fill="#38A5BD" transform="translate(100,340)"/>
<path d="M0 0 C5.11400993 0.66352661 9.67657431 2.13721043 14.5 3.875 C15.23347656 4.13152344 15.96695312 4.38804688 16.72265625 4.65234375 C20.9801131 6.16796792 24.99498302 7.88342457 29 10 C29 10.66 29 11.32 29 12 C29.71929687 12.10441406 30.43859375 12.20882812 31.1796875 12.31640625 C34.28934125 13.07013119 36.41894344 14.24518023 39.125 15.9375 C39.97320312 16.46214844 40.82140625 16.98679687 41.6953125 17.52734375 C43.47621096 18.66530768 45.2415249 19.82768327 47 21 C47 21.66 47 22.32 47 23 C44.82108649 21.97724468 42.85951724 20.90246409 40.87890625 19.52734375 C34.87904238 15.40939333 30.13311472 14.28891013 22.8828125 14.10546875 C20.39607631 14.0144906 18.36828679 13.71506244 16 13 C16.33 11.68 16.66 10.36 17 9 C16.34 9 15.68 9 15 9 C15 8.34 15 7.68 15 7 C14.18015625 6.96261719 13.3603125 6.92523437 12.515625 6.88671875 C11.43796875 6.82097656 10.3603125 6.75523438 9.25 6.6875 C8.18265625 6.62949219 7.1153125 6.57148438 6.015625 6.51171875 C2.8178932 5.96909846 1.37401309 5.14928855 -1 3 C0.98 3 2.96 3 5 3 C2.525 2.01 2.525 2.01 0 1 C0 0.67 0 0.34 0 0 Z " fill="#4599A9" transform="translate(294,25)"/>
<path d="M0 0 C1.32 0 2.64 0 4 0 C4 0.66 4 1.32 4 2 C4.556875 2.103125 5.11375 2.20625 5.6875 2.3125 C11.19835508 3.95086232 15.45335682 7.56669603 19 12 C20.03842565 14.31648799 21.0421975 16.64903024 22 19 C22.721875 19.680625 23.44375 20.36125 24.1875 21.0625 C26 23 26 23 26.25 26.25 C26.1675 27.1575 26.085 28.065 26 29 C25.7525 28.1028125 25.7525 28.1028125 25.5 27.1875 C23.18723796 23.81472202 19.80108663 23.1668452 16 22 C16 19 16 16 16 13 C14.68 13 13.36 13 12 13 C12 12.34 12 11.68 12 11 C11.01 11.33 10.02 11.66 9 12 C8.54625 11.34 8.0925 10.68 7.625 10 C7.08875 9.34 6.5525 8.68 6 8 C5.34 8 4.68 8 4 8 C0 2.58823529 0 2.58823529 0 0 Z M8 6 C9 8 9 8 9 8 Z " fill="#58D5E8" transform="translate(342,55)"/>
<path d="M0 0 C20.13207584 1.73072193 38.40058269 10.71432379 51.7734375 26.03125 C61 37.83375635 61 37.83375635 61 43 C60.34 43 59.68 43 59 43 C57.99491199 41.21118264 56.99607264 39.41885304 56 37.625 C55.443125 36.62726563 54.88625 35.62953125 54.3125 34.6015625 C53 32 53 32 53 30 C52.34 30 51.68 30 51 30 C49.484375 28.42578125 49.484375 28.42578125 47.75 26.3125 C45.49924272 23.64650867 43.29950455 21.28989909 40.5625 19.125 C39.716875 18.42375 38.87125 17.7225 38 17 C38 16.34 38 15.68 38 15 C37.44828125 14.88785156 36.8965625 14.77570313 36.328125 14.66015625 C33.59934789 13.88639227 31.27227057 12.73182306 28.75 11.4375 C27.85796875 10.98246094 26.9659375 10.52742188 26.046875 10.05859375 C25.37140625 9.70925781 24.6959375 9.35992187 24 9 C24 8.34 24 7.68 24 7 C23.41992188 6.95101562 22.83984375 6.90203125 22.2421875 6.8515625 C17.52812735 6.40038183 13.48944722 5.56154686 9 4 C7.7625 3.855625 6.525 3.71125 5.25 3.5625 C3.64125 3.2840625 3.64125 3.2840625 2 3 C1.34 2.01 0.68 1.02 0 0 Z " fill="#05262F" transform="translate(263,82)"/>
<path d="M0 0 C0.66 0 1.32 0 2 0 C5.47959034 6.10088173 8.62996828 12.1484998 11.125 18.71875 C11.91140954 20.76903202 12.77657065 22.75296258 13.6875 24.75 C16.16821073 30.89271228 16.13008472 36.85567438 16.0625 43.375 C16.05798828 44.20644531 16.05347656 45.03789062 16.04882812 45.89453125 C16.03713164 47.92971897 16.01919935 49.96486923 16 52 C15.67 52 15.34 52 15 52 C14.92523438 51.24460938 14.85046875 50.48921875 14.7734375 49.7109375 C12.89121155 33.95190846 9.02341074 18.42331466 1.3203125 4.484375 C0 2 0 2 0 0 Z " fill="#011C2B" transform="translate(376,89)"/>
<path d="M0 0 C1.5 1.3125 1.5 1.3125 3 3 C3 3.99 3 4.98 3 6 C3.99 5.67 4.98 5.34 6 5 C6.66 6.32 7.32 7.64 8 9 C8.66 9 9.32 9 10 9 C10 9.99 10 10.98 10 12 C18.23962592 14.13619931 26.53907097 15.21410343 35 16 C32.51504089 18.48495911 30.94277439 18.30662412 27.54052734 18.38012695 C14.80942713 18.34998568 14.80942713 18.34998568 9 14 C8.17628906 13.42185547 8.17628906 13.42185547 7.3359375 12.83203125 C3.71335383 10.07494171 1.16664719 6.98663083 -1 3 C-0.67 2.01 -0.34 1.02 0 0 Z " fill="#41A8BF" transform="translate(197,274)"/>
<path d="M0 0 C8.48443283 -0.02322252 16.96885226 -0.04096548 25.45330906 -0.05181217 C29.39344472 -0.05701937 33.33355854 -0.06407755 37.27368164 -0.07543945 C41.07973888 -0.08634544 44.88577518 -0.09229312 48.69184685 -0.09487724 C50.14022081 -0.09671763 51.5885937 -0.10031137 53.03695869 -0.10573006 C55.07357336 -0.11304298 57.11010273 -0.11398665 59.14672852 -0.11352539 C60.30366714 -0.115746 61.46060577 -0.11796661 62.65260315 -0.12025452 C68.71885787 0.09767439 74.23524576 1.23527932 80 3 C80 3.33 80 3.66 80 4 C77.36 4.33 74.72 4.66 72 5 C72 4.34 72 3.68 72 3 C64.41581116 1.78231635 56.88288938 1.87263534 49.21875 1.90234375 C47.79528859 1.90421197 46.37182654 1.90563397 44.94836426 1.90663147 C41.22646263 1.91042482 37.50460087 1.92022743 33.78271484 1.93133545 C29.97494038 1.94161848 26.16715939 1.94614377 22.359375 1.95117188 C14.90623195 1.96185298 7.45312159 1.97889054 0 2 C0 1.34 0 0.68 0 0 Z " fill="#68C9D9" transform="translate(214,21)"/>
<path d="M0 0 C4.455 0.99 4.455 0.99 9 2 C9.33 3.32 9.66 4.64 10 6 C11.32 6.33 12.64 6.66 14 7 C14 7.66 14 8.32 14 9 C14.66 9 15.32 9 16 9 C16.2475 9.969375 16.495 10.93875 16.75 11.9375 C17.1625 12.948125 17.575 13.95875 18 15 C20.03243548 15.96877057 20.03243548 15.96877057 22 16 C22.33 17.65 22.66 19.3 23 21 C23.66 21 24.32 21 25 21 C25.99 22.98 26.98 24.96 28 27 C27.34 27.33 26.68 27.66 26 28 C25.484375 27.175 24.96875 26.35 24.4375 25.5 C18.14573862 16.1934363 10.28225502 10.18817002 1 4 C0.67 2.68 0.34 1.36 0 0 Z " fill="#64CCDD" transform="translate(293,88)"/>
<path d="M0 0 C2 1 2 1 3 3 C-0.75 6 -0.75 6 -3 6 C-3 6.66 -3 7.32 -3 8 C-6 10 -6 10 -9.5625 10.4375 C-11.2640625 10.7159375 -11.2640625 10.7159375 -13 11 C-13.99 12.485 -13.99 12.485 -15 14 C-17.609621 14.38411275 -20.0058074 14.60293197 -22.625 14.6875 C-23.68460937 14.73874023 -23.68460937 14.73874023 -24.765625 14.79101562 C-26.50985688 14.87351308 -28.25490395 14.93843335 -30 15 C-29.67 14.34 -29.34 13.68 -29 13 C-27.17161554 12.55152834 -25.34201789 12.10763048 -23.5078125 11.68359375 C-14.84240314 9.32152734 -7.2056679 5.29507414 0 0 Z " fill="#3E98AC" transform="translate(301,214)"/>
<path d="M0 0 C-11.68083074 7.4635581 -22.94323456 13.95115042 -35.9375 18.875 C-36.77966064 19.19815186 -37.62182129 19.52130371 -38.48950195 19.85424805 C-39.28573975 20.14726807 -40.08197754 20.44028809 -40.90234375 20.7421875 C-41.61898193 21.0088623 -42.33562012 21.27553711 -43.07397461 21.55029297 C-45 22 -45 22 -48 21 C-43.73804149 18.68842928 -39.19669967 17.42848261 -34.58203125 16 C-31.85885791 15.27817179 -31.85885791 15.27817179 -31 13 C-28.67190457 12.31526605 -26.33762223 11.65146849 -24 11 C-19.35787143 8.86462086 -14.98187704 6.42224629 -10.828125 3.44140625 C-10.03921875 2.88324219 -9.2503125 2.32507813 -8.4375 1.75 C-7.69371094 1.20859375 -6.94992187 0.6671875 -6.18359375 0.109375 C-3.54497684 -1.23117456 -2.73521162 -0.83564961 0 0 Z " fill="#46A9BD" transform="translate(339,265)"/>
<path d="M0 0 C0.66 0.33 1.32 0.66 2 1 C1.67515625 1.80824219 1.67515625 1.80824219 1.34375 2.6328125 C-2.09849246 12.80017679 -1.27324062 23.41087508 -1 34 C-1.66 34 -2.32 34 -3 34 C-4.85542106 29.25340075 -5.41931625 24.86701351 -5.4375 19.8125 C-5.44330078 18.69790405 -5.44330078 18.69790405 -5.44921875 17.56079102 C-5.31113628 10.91485289 -3.44785744 5.70127856 0 0 Z " fill="#256D7C" transform="translate(197,243)"/>
<path d="M0 0 C6.98025667 3.50295969 13.71257242 7.12171375 19 13 C19 13.66 19 14.32 19 15 C17.1875 15.6875 17.1875 15.6875 15 16 C13.25 14.5625 13.25 14.5625 12 13 C11.67 13.33 11.34 13.66 11 14 C10.34 13.67 9.68 13.34 9 13 C9.33 11.68 9.66 10.36 10 9 C9.05125 8.71125 8.1025 8.4225 7.125 8.125 C4 7 4 7 2 5 C1.01 5.495 1.01 5.495 0 6 C0 4.02 0 2.04 0 0 Z " fill="#6AD2DF" transform="translate(326,39)"/>
<path d="M0 0 C0.66 0.33 1.32 0.66 2 1 C-4.15889749 14.41905479 -11.86355403 26.19226621 -22 37 C-22.66 36.01 -23.32 35.02 -24 34 C-23.01 34 -22.02 34 -21 34 C-21 32.68 -21 31.36 -21 30 C-20.34 30 -19.68 30 -19 30 C-19 29.34 -19 28.68 -19 28 C-17.68 27.67 -16.36 27.34 -15 27 C-15.33 25.68 -15.66 24.36 -16 23 C-15.01 23 -14.02 23 -13 23 C-13 22.34 -13 21.68 -13 21 C-12.34 21 -11.68 21 -11 21 C-10.690625 20.21625 -10.38125 19.4325 -10.0625 18.625 C-9 16 -9 16 -8 14 C-7.34 14 -6.68 14 -6 14 C-5.896875 12.906875 -5.79375 11.81375 -5.6875 10.6875 C-4.988068 6.93600108 -4.74005005 6.30164205 -2 4 C-0.82425289 1.90010348 -0.82425289 1.90010348 0 0 Z " fill="#52B3C6" transform="translate(379,212)"/>
<path d="M0 0 C5.55011716 -0.04969113 11.10010282 -0.08585685 16.65039062 -0.10986328 C18.53583026 -0.11987847 20.42125453 -0.13349452 22.30664062 -0.15087891 C25.02738249 -0.17532532 27.74791777 -0.18652816 30.46875 -0.1953125 C31.30241089 -0.20563507 32.13607178 -0.21595764 32.99499512 -0.22659302 C38.32762391 -0.22759968 42.87442038 0.51275853 48 2 C48 2.66 48 3.32 48 4 C47.01 4.33 46.02 4.66 45 5 C44.34 4.67 43.68 4.34 43 4 C38.87713371 3.08328802 38.87713371 3.08328802 34.75 3.5625 C34.1725 3.706875 33.595 3.85125 33 4 C32.34 3.34 31.68 2.68 31 2 C28.2175576 1.79300803 28.2175576 1.79300803 24.9375 1.9375 C19.13674535 2.02785443 13.41464728 1.86700538 7.625 1.5 C6.86952881 1.45222412 6.11405762 1.40444824 5.33569336 1.35522461 C3.55691168 1.24012576 1.77841916 1.12057079 0 1 C0 0.67 0 0.34 0 0 Z " fill="#6BD3E2" transform="translate(238,22)"/>
<path d="M0 0 C4.31443622 6.47165433 6.35301658 13.83811214 8.25 21.3125 C8.51272705 22.33476685 8.51272705 22.33476685 8.78076172 23.37768555 C9.66220256 26.98733225 10.20129113 30.28330312 10 34 C7.46417429 31.46417429 7.06199947 29.43588064 6 26 C5.52192154 24.60379358 5.04266829 23.20798909 4.5625 21.8125 C2.30555633 15.04166899 0.11114226 8.06192637 -1 1 C-0.67 0.67 -0.34 0.34 0 0 Z " fill="#68C6D5" transform="translate(380,98)"/>
<path d="M0 0 C0.33 0 0.66 0 1 0 C2.28802244 8.83360274 2.111369 17.66004345 2.0625 26.5625 C2.05747543 28.15950381 2.05291421 29.75650914 2.04882812 31.35351562 C2.03789728 35.23571533 2.02068533 39.11784051 2 43 C1.67 43 1.34 43 1 43 C0.11400957 38.35692146 -0.21851325 33.79636935 -0.3515625 29.08203125 C-0.37471527 28.34297043 -0.39786804 27.60390961 -0.42172241 26.842453 C-0.46908542 25.29029397 -0.51435035 23.73806963 -0.55761719 22.18579102 C-0.62509553 19.80913528 -0.70279946 17.43295659 -0.78125 15.05664062 C-0.82613795 13.54428902 -0.87042965 12.03191958 -0.9140625 10.51953125 C-0.93796051 9.81012894 -0.96185852 9.10072662 -0.98648071 8.36982727 C-1.0656707 5.26621789 -0.99133222 2.97399667 0 0 Z " fill="#56B9C8" transform="translate(390,132)"/>
<path d="M0 0 C0 0.33 0 0.66 0 1 C-9.57663752 2.66382176 -18.76027068 3.29291156 -28.45336914 3.20581055 C-30.59207811 3.18724322 -32.73035838 3.18530391 -34.86914062 3.18554688 C-46.1737381 3.14530182 -46.1737381 3.14530182 -51 2 C-51 1.67 -51 1.34 -51 1 C-45.98704865 0.85503233 -40.97403023 0.71274719 -35.9609375 0.57275391 C-34.2620243 0.52495593 -32.56313017 0.47647441 -30.86425781 0.42724609 C-20.57221932 0.1295425 -10.29730571 -0.07601046 0 0 Z " fill="#39B9CF" transform="translate(273,231)"/>
<path d="M0 0 C5.11400993 0.66352661 9.67657431 2.13721043 14.5 3.875 C15.23347656 4.13152344 15.96695312 4.38804688 16.72265625 4.65234375 C20.9801131 6.16796792 24.99498302 7.88342457 29 10 C29 10.66 29 11.32 29 12 C28.01 12.33 27.02 12.66 26 13 C25.443125 12.38125 24.88625 11.7625 24.3125 11.125 C19.02290964 6.26429534 13.13625483 6.6683286 6.27734375 6.44140625 C2.87115366 5.98264644 1.47222467 5.3119308 -1 3 C0.98 3 2.96 3 5 3 C2.525 2.01 2.525 2.01 0 1 C0 0.67 0 0.34 0 0 Z " fill="#408997" transform="translate(294,25)"/>
<path d="M0 0 C0.33 0 0.66 0 1 0 C1 15.18 1 30.36 1 46 C0.67 46 0.34 46 0 46 C-0.33 44.35 -0.66 42.7 -1 41 C-1.33 41 -1.66 41 -2 41 C-2.02689216 39.52093108 -2.04634621 38.04172517 -2.0625 36.5625 C-2.07990234 35.32693359 -2.07990234 35.32693359 -2.09765625 34.06640625 C-2 32 -2 32 -1 31 C-0.84111908 28.71011219 -0.74861927 26.41556559 -0.68359375 24.12109375 C-0.66281265 23.4344313 -0.64203156 22.74776886 -0.62062073 22.04029846 C-0.55505857 19.83947065 -0.49620985 17.63852025 -0.4375 15.4375 C-0.39432108 13.94855486 -0.350707 12.45962227 -0.30664062 10.97070312 C-0.1993707 7.31393447 -0.09812228 3.65702682 0 0 Z " fill="#55D0E4" transform="translate(156,112)"/>
<path d="M0 0 C0 0.99 0 1.98 0 3 C-0.66 3.66 -1.32 4.32 -2 5 C-2.226875 5.7425 -2.45375 6.485 -2.6875 7.25 C-4.29416868 10.61635343 -6.31534356 12.19476488 -9.1796875 14.5078125 C-11.63086977 16.51715076 -13.79395606 18.72710624 -16 21 C-16.99 20.34 -17.98 19.68 -19 19 C-18.38253906 18.46632813 -17.76507813 17.93265625 -17.12890625 17.3828125 C-10.95502033 11.95129643 -5.37558429 6.21957699 0 0 Z " fill="#012C40" transform="translate(363,241)"/>
<path d="M0 0 C0.99 0 1.98 0 3 0 C6.69672203 10.46360304 5.94129605 20.15808402 5 31 C4.67 31 4.34 31 4 31 C3.9498877 30.45174561 3.89977539 29.90349121 3.84814453 29.33862305 C2.51242759 14.58742115 2.51242759 14.58742115 0 0 Z " fill="#62C4D7" transform="translate(327,132)"/>
<path d="M0 0 C0.33 0.99 0.66 1.98 1 3 C0.07421875 4.82421875 0.07421875 4.82421875 -1.3125 6.6875 C-1.76238281 7.31011719 -2.21226562 7.93273437 -2.67578125 8.57421875 C-3.11277344 9.04472656 -3.54976563 9.51523438 -4 10 C-4.66 10 -5.32 10 -6 10 C-6.103125 10.5775 -6.20625 11.155 -6.3125 11.75 C-7.10896465 14.35661158 -8.19065277 15.9735311 -10 18 C-10.66 18 -11.32 18 -12 18 C-12 18.66 -12 19.32 -12 20 C-12.66 20 -13.32 20 -14 20 C-12.5014118 16.9024397 -10.83068882 13.95148057 -9.0625 11 C-8.55847656 10.154375 -8.05445313 9.30875 -7.53515625 8.4375 C-4.6600208 3.87239945 -4.6600208 3.87239945 -3 2 C-2.01 2 -1.02 2 0 2 C0 1.34 0 0.68 0 0 Z " fill="#031F2B" transform="translate(374,228)"/>
<path d="M0 0 C-0.99 0 -1.98 0 -3 0 C-3.33 0.99 -3.66 1.98 -4 3 C-12.16617194 3.84388104 -19.84997076 4.06162705 -28 3 C-28 2.67 -28 2.34 -28 2 C-26.65808594 1.92652344 -26.65808594 1.92652344 -25.2890625 1.8515625 C-18.73501531 1.44630159 -12.4658021 0.89421008 -6.0859375 -0.6953125 C-3.76780293 -1.03391643 -2.21380527 -0.71122251 0 0 Z " fill="#063142" transform="translate(284,290)"/>
<path d="M0 0 C15.63090011 0.62870472 15.63090011 0.62870472 21 4 C21.66796875 6.10546875 21.66796875 6.10546875 22 8 C20.783125 7.5875 19.56625 7.175 18.3125 6.75 C12.24242851 4.72341064 6.12158449 2.86391367 0 1 C0 0.67 0 0.34 0 0 Z " fill="#62BCCA" transform="translate(272,83)"/>
<path d="M0 0 C0 0.99 0 1.98 0 3 C-4.95 3 -9.9 3 -15 3 C-15.33 2.01 -15.66 1.02 -16 0 C-14.27185839 -0.19672365 -12.54240803 -0.38196799 -10.8125 -0.5625 C-9.84957031 -0.66691406 -8.88664062 -0.77132813 -7.89453125 -0.87890625 C-5.05766623 -0.99758751 -2.74576329 -0.67765639 0 0 Z " fill="#2DAEC9" transform="translate(134,411)"/>
<path d="M0 0 C0.99 0.495 0.99 0.495 2 1 C2 1.66 2 2.32 2 3 C2.66 3 3.32 3 4 3 C4.92188461 5.76565382 5.11785222 7.38283702 5.09765625 10.23046875 C5.09443359 11.03291016 5.09121094 11.83535156 5.08789062 12.66210938 C5.07532227 13.91217773 5.07532227 13.91217773 5.0625 15.1875 C5.05798828 16.03248047 5.05347656 16.87746094 5.04882812 17.74804688 C5.03705403 19.83206155 5.0191189 21.91603977 5 24 C4.67 24 4.34 24 4 24 C3.87882812 23.10539062 3.75765625 22.21078125 3.6328125 21.2890625 C2.64162794 14.13728469 1.52854643 7.05733138 0 0 Z " fill="#0B3A42" transform="translate(387,117)"/>
<path d="M0 0 C1.66666667 1.66666667 3.33333333 3.33333333 5 5 C6.2375 6.175625 6.2375 6.175625 7.5 7.375 C10.42729552 10.4486603 12.73549275 13.40342966 15 17 C14.67 17.99 14.34 18.98 14 20 C13.443125 19.113125 12.88625 18.22625 12.3125 17.3125 C9.65440606 13.3206628 6.32507497 10.17784441 2.75 7 C0.71078699 4.66947084 0.33777931 3.04001379 0 0 Z " fill="#3D7A87" transform="translate(361,68)"/>
<path d="M0 0 C2.96527758 2.4453385 3.55582214 4.44602347 4.1875 8.1875 C4.34605469 9.08855469 4.50460937 9.98960937 4.66796875 10.91796875 C4.83232422 11.94857422 4.83232422 11.94857422 5 13 C3.68 12.67 2.36 12.34 1 12 C0.34 9.69 -0.32 7.38 -1 5 C-1.66 5 -2.32 5 -3 5 C-3 3 -3 3 -1.5 1.375 C-1.005 0.92125 -0.51 0.4675 0 0 Z " fill="#55CDDD" transform="translate(385,122)"/>
<path d="M0 0 C0.33 0.99 0.66 1.98 1 3 C0.67 3.66 0.34 4.32 0 5 C-0.66 5 -1.32 5 -2 5 C-2.33 6.32 -2.66 7.64 -3 9 C-3.99 9 -4.98 9 -6 9 C-6 9.66 -6 10.32 -6 11 C-7.98 11.66 -9.96 12.32 -12 13 C-10.625 11 -10.625 11 -9 9 C-8.34 9 -7.68 9 -7 9 C-6.773125 8.443125 -6.54625 7.88625 -6.3125 7.3125 C-4.64103234 4.36753316 -2.44723648 2.31843456 0 0 Z " fill="#3C859B" transform="translate(315,201)"/>
<path d="M0 0 C0.66 0 1.32 0 2 0 C2.25 7.625 2.25 7.625 0 11 C-0.45139459 13.0492094 -0.45139459 13.0492094 -0.625 15.1875 C-0.74875 16.445625 -0.8725 17.70375 -1 19 C-1.99 19.33 -2.98 19.66 -4 20 C-4 19.01 -4 18.02 -4 17 C-3.34 17 -2.68 17 -2 17 C-2.04125 15.865625 -2.0825 14.73125 -2.125 13.5625 C-2.14183841 8.85616438 -1.17621777 4.53683996 0 0 Z " fill="#4ACCE2" transform="translate(387,175)"/>
<path d="M0 0 C0 0.66 0 1.32 0 2 C-3.96 3.98 -7.92 5.96 -12 8 C-12.33 7.01 -12.66 6.02 -13 5 C-8.45605892 1.79858697 -5.53941757 0 0 0 Z " fill="#011A23" transform="translate(330,273)"/>
<path d="M0 0 C5.8022175 -0.36263859 9.63999211 0.74315457 15 3 C11.87819599 3.96661363 9.47916205 3.98988909 6.25 3.5625 C5.05117188 3.40974609 5.05117188 3.40974609 3.828125 3.25390625 C2.92320312 3.12822266 2.92320312 3.12822266 2 3 C1.67 3.66 1.34 4.32 1 5 C0.34 5 -0.32 5 -1 5 C-0.67 3.35 -0.34 1.7 0 0 Z " fill="#6DCDDA" transform="translate(287,25)"/>
<path d="M0 0 C0 0.99 0 1.98 0 3 C-6.4 7.06153846 -6.4 7.06153846 -9.4375 6.75 C-9.953125 6.5025 -10.46875 6.255 -11 6 C-11 4.68 -11 3.36 -11 2 C-10.01 2 -9.02 2 -8 2 C-8 2.66 -8 3.32 -8 4 C-7.34 4 -6.68 4 -6 4 C-5.67 3.01 -5.34 2.02 -5 1 C-3.35 0.67 -1.7 0.34 0 0 Z " fill="#2DB8D5" transform="translate(321,271)"/>
<path d="M0 0 C0 0.66 0 1.32 0 2 C-5.32932432 3.70084819 -10.43109483 4.52013969 -16 5 C-16 4.34 -16 3.68 -16 3 C-5.62642369 -0.44419134 -5.62642369 -0.44419134 0 0 Z " fill="#011E2A" transform="translate(297,287)"/>
<path d="M0 0 C-0.33 0.66 -0.66 1.32 -1 2 C-8.26 2 -15.52 2 -23 2 C-23 1.67 -23 1.34 -23 1 C-22.04738281 0.93941406 -21.09476563 0.87882813 -20.11328125 0.81640625 C-18.23189453 0.69072266 -18.23189453 0.69072266 -16.3125 0.5625 C-15.07113281 0.48128906 -13.82976562 0.40007812 -12.55078125 0.31640625 C-1.8984375 -0.6328125 -1.8984375 -0.6328125 0 0 Z " fill="#4BADBD" transform="translate(277,229)"/>
<path d="M0 0 C0.56589844 0.22300781 1.13179688 0.44601562 1.71484375 0.67578125 C-0.00484535 1.85637342 -1.73634727 3.01977104 -3.47265625 4.17578125 C-4.43558594 4.82546875 -5.39851563 5.47515625 -6.390625 6.14453125 C-9.38198417 7.72700466 -10.96755481 8.015426 -14.28515625 7.67578125 C-13.29515625 7.01578125 -12.30515625 6.35578125 -11.28515625 5.67578125 C-10.58519531 5.16660156 -9.88523437 4.65742188 -9.1640625 4.1328125 C-8.39964844 3.59011719 -7.63523437 3.04742187 -6.84765625 2.48828125 C-6.08582031 1.93785156 -5.32398438 1.38742187 -4.5390625 0.8203125 C-2.28515625 -0.32421875 -2.28515625 -0.32421875 0 0 Z " fill="#4AB0C8" transform="translate(337.28515625,264.32421875)"/>
<path d="M0 0 C0.66 0 1.32 0 2 0 C2 0.66 2 1.32 2 2 C2.66 2 3.32 2 4 2 C5.47075246 6.41225737 6.36884358 9.48281619 5 14 C4.34 13.67 3.68 13.34 3 13 C2.37330801 10.83532539 1.84572626 8.64135476 1.375 6.4375 C1.11460937 5.23996094 0.85421875 4.04242188 0.5859375 2.80859375 C0.39257812 1.88175781 0.19921875 0.95492187 0 0 Z " fill="#3F8A97" transform="translate(322,120)"/>
<path d="M0 0 C5.02818724 -0.25140936 9.2130157 0.67243553 14 2 C15.33250997 2.33660966 16.66562667 2.67085458 18 3 C12.46656517 5.76671741 5.60710027 3.60202865 0 2 C0 1.34 0 0.68 0 0 Z " fill="#36B1D1" transform="translate(214,288)"/>
<path d="M0 0 C6.22987798 0.50512524 11.45474233 3.32604123 17 6 C17 6.66 17 7.32 17 8 C16.01 8.33 15.02 8.66 14 9 C13.443125 8.38125 12.88625 7.7625 12.3125 7.125 C8.33975323 3.47436783 4.24948442 2.7324862 -1 2 C-0.67 1.34 -0.34 0.68 0 0 Z " fill="#23505D" transform="translate(306,29)"/>
<path d="M0 0 C-0.99 0.495 -0.99 0.495 -2 1 C-1.34 1.66 -0.68 2.32 0 3 C-4.95 3.33 -9.9 3.66 -15 4 C-14 2 -14 2 -12.22265625 1.40234375 C-11.15337891 1.17224609 -11.15337891 1.17224609 -10.0625 0.9375 C-2.44848061 -0.73454418 -2.44848061 -0.73454418 0 0 Z " fill="#2E7487" transform="translate(286,225)"/>
<path d="M0 0 C14.78132118 0.77904328 14.78132118 0.77904328 21 3 C21 3.33 21 3.66 21 4 C18.36 4.33 15.72 4.66 13 5 C13 4.34 13 3.68 13 3 C8.71 2.34 4.42 1.68 0 1 C0 0.67 0 0.34 0 0 Z " fill="#194F55" transform="translate(273,21)"/>
<path d="M0 0 C4.59109897 2.29554948 6.32721834 3.50972681 9 8 C10.58245275 9.75149165 10.58245275 9.75149165 12 11 C9.61435923 10.42415568 7.33317216 9.77772405 5 9 C3.93224776 7.03533587 2.93446535 5.03144641 2 3 C1.34 2.01 0.68 1.02 0 0 Z " fill="#4C929D" transform="translate(341,48)"/>
<path d="M0 0 C0.99 0.66 1.98 1.32 3 2 C0.03 4.64 -2.94 7.28 -6 10 C-6.33 9.01 -6.66 8.02 -7 7 C-5.37660195 5.29115995 -3.70680947 3.62553283 -2 2 C-1.34 2 -0.68 2 0 2 C0 1.34 0 0.68 0 0 Z " fill="#4DB2C5" transform="translate(349,252)"/>
<path d="M0 0 C0.66 0 1.32 0 2 0 C4.97735082 3.55477643 6.89865026 6.86488289 7.3125 11.5 C7.209375 12.325 7.10625 13.15 7 14 C4.79459886 11.79459886 3.7599273 9.78605258 2.375 7 C1.92898438 6.113125 1.48296875 5.22625 1.0234375 4.3125 C0 2 0 2 0 0 Z " fill="#072D36" transform="translate(376,89)"/>
<path d="M0 0 C0.61875 0.185625 1.2375 0.37125 1.875 0.5625 C4.04160178 1.23686176 4.04160178 1.23686176 6 0 C6.66 0.33 7.32 0.66 8 1 C8 1.99 8 2.98 8 4 C3.71 3.67 -0.58 3.34 -5 3 C-5 2.67 -5 2.34 -5 2 C-3.35 2 -1.7 2 0 2 C0 1.34 0 0.68 0 0 Z " fill="#5CCFDE" transform="translate(274,80)"/>
<path d="M0 0 C0 0.99 0 1.98 0 3 C-0.66 3.66 -1.32 4.32 -2 5 C-2.309375 5.825 -2.61875 6.65 -2.9375 7.5 C-4 10 -4 10 -7 12 C-6.67566492 6.64847115 -3.50295176 3.71719957 0 0 Z " fill="#063447" transform="translate(363,241)"/>
<path d="M0 0 C0.99 0.33 1.98 0.66 3 1 C-0.85623679 4.97674419 -0.85623679 4.97674419 -4.11328125 5.04296875 C-6.08863015 4.7798228 -8.04718291 4.39718314 -10 4 C-8 2 -8 2 -6.0546875 1.8046875 C-4.03645833 1.86979167 -2.01822917 1.93489583 0 2 C0 1.34 0 0.68 0 0 Z " fill="#32BAD3" transform="translate(286,226)"/>
<path d="M0 0 C1.32 0.33 2.64 0.66 4 1 C4 1.99 4 2.98 4 4 C4.66 4 5.32 4 6 4 C6.99 5.98 7.98 7.96 9 10 C8.01 10.495 8.01 10.495 7 11 C4.56384272 7.38776679 2.20919664 3.75563429 0 0 Z " fill="#62C0CF" transform="translate(312,105)"/>
<path d="M0 0 C0.66 0.33 1.32 0.66 2 1 C1.55149342 2.81495662 1.09090429 4.62693134 0.625 6.4375 C0.24214844 7.95150391 0.24214844 7.95150391 -0.1484375 9.49609375 C-1 12 -1 12 -3 13 C-3.31563182 7.73946963 -2.66590937 4.55426184 0 0 Z " fill="#307F8F" transform="translate(197,243)"/>
<path d="M0 0 C0.66 0 1.32 0 2 0 C2.33 0.99 2.66 1.98 3 3 C0.82575883 5.50037734 -0.73045798 6.43628586 -4 7 C-3.34 5.35 -2.68 3.7 -2 2 C-1.34 2 -0.68 2 0 2 C0 1.34 0 0.68 0 0 Z " fill="#3D94A9" transform="translate(202,238)"/>
<path d="M0 0 C1.62978448 0.92915757 3.25368275 1.86864534 4.875 2.8125 C5.77992188 3.33457031 6.68484375 3.85664062 7.6171875 4.39453125 C10 6 10 6 12 9 C10.68 8.67 9.36 8.34 8 8 C8 7.34 8 6.68 8 6 C7.13375 5.814375 7.13375 5.814375 6.25 5.625 C3.97664233 4.99351176 2.0746471 4.11141809 0 3 C0 2.01 0 1.02 0 0 Z " fill="#07323C" transform="translate(293,91)"/>
<path d="M0 0 C1.98 0.495 1.98 0.495 4 1 C3.67 2.98 3.34 4.96 3 7 C1.68 7 0.36 7 -1 7 C-0.67 4.69 -0.34 2.38 0 0 Z " fill="#5DD2E4" transform="translate(376,95)"/>
<path d="M0 0 C0 0.66 0 1.32 0 2 C-1.65 2 -3.3 2 -5 2 C-5.33 2.66 -5.66 3.32 -6 4 C-6.66 4.66 -7.32 5.32 -8 6 C-8.99 5.67 -9.98 5.34 -11 5 C-7.56138316 1.21752148 -5.17193751 0 0 0 Z " fill="#2F7F8B" transform="translate(215,232)"/>
<path d="M0 0 C0.33 0 0.66 0 1 0 C1 1.65 1 3.3 1 5 C0.34 5 -0.32 5 -1 5 C-1 5.99 -1 6.98 -1 8 C-1.66 8 -2.32 8 -3 8 C-3 8.66 -3 9.32 -3 10 C-3.66 10 -4.32 10 -5 10 C-3.66654496 6.40992874 -2.1056769 3.20429093 0 0 Z " fill="#072E43" transform="translate(377,220)"/>
<path d="M0 0 C2 1 2 1 3 3 C-0.75 6 -0.75 6 -3 6 C-3.33 5.01 -3.66 4.02 -4 3 C-2.68 2.01 -1.36 1.02 0 0 Z " fill="#398A9B" transform="translate(301,214)"/>
<path d="M0 0 C3.24732932 1.62366466 3.70155136 4.75387839 5 8 C4.01 8 3.02 8 2 8 C-0.1519437 4.77208445 -0.20086443 3.71599191 0 0 Z " fill="#66C1D1" transform="translate(374,87)"/>
<path d="M0 0 C0.66 0.33 1.32 0.66 2 1 C-1.75 7.875 -1.75 7.875 -4 9 C-4.33 8.01 -4.66 7.02 -5 6 C-4.01 6 -3.02 6 -2 6 C-2 4.68 -2 3.36 -2 2 C-1.34 2 -0.68 2 0 2 C0 1.34 0 0.68 0 0 Z " fill="#4CBBD2" transform="translate(360,240)"/>
<path d="M0 0 C1.98 0 3.96 0 6 0 C3.11964908 2.24027294 0.15133488 4.16172132 -3 6 C-3.33 5.01 -3.66 4.02 -4 3 C-3.01 2.67 -2.02 2.34 -1 2 C-0.67 1.34 -0.34 0.68 0 0 Z " fill="#3AB7CB" transform="translate(208,235)"/>
<path d="M0 0 C2.31 0 4.62 0 7 0 C5.09598862 1.90401138 3.66574314 2.93520439 0.953125 3.19921875 C-1.03233273 3.1886578 -3.0169914 3.09915043 -5 3 C-5 2.67 -5 2.34 -5 2 C-3.35 2 -1.7 2 0 2 C0 1.34 0 0.68 0 0 Z " fill="#47BFD5" transform="translate(215,232)"/>
<path d="M0 0 C2.31 1.98 4.62 3.96 7 6 C6.34 6.66 5.68 7.32 5 8 C4.01 7.34 3.02 6.68 2 6 C2 5.01 2 4.02 2 3 C1.34 3 0.68 3 0 3 C0 2.01 0 1.02 0 0 Z " fill="#6CCCDB" transform="translate(354,61)"/>
<path d="M0 0 C2.97 0.33 5.94 0.66 9 1 C8.67 1.66 8.34 2.32 8 3 C5.125 3.1875 5.125 3.1875 2 3 C1.34 2.01 0.68 1.02 0 0 Z " fill="#0B3339" transform="translate(263,82)"/>
<path d="M0 0 C0.66 0.33 1.32 0.66 2 1 C1.67 1.99 1.34 2.98 1 4 C-1.31 3.67 -3.62 3.34 -6 3 C-3 1 -3 1 0 0 Z " fill="#052F43" transform="translate(300,284)"/>
<path d="M0 0 C1.61949011 2.57213134 2.04408751 3.67669159 1.625 6.75 C1.41875 7.4925 1.2125 8.235 1 9 C-0.50559539 7.03617993 -1.89131683 5.21736634 -3 3 C-2.01 2.01 -1.02 1.02 0 0 Z " fill="#4ED2E6" transform="translate(385,122)"/>
<path d="M0 0 C0.99 0.33 1.98 0.66 3 1 C3 3.97 3 6.94 3 10 C0.3144406 7.3144406 -0.06049974 4.62378672 -1 1 C-0.67 0.67 -0.34 0.34 0 0 Z " fill="#5DCCDD" transform="translate(384,114)"/>
</svg>
